# xmcd
#
# Track frame offsets: 
#        150
#        13102
#        28350
#        49625
#        74772
#        91542
#        113292
#        126770
#        139167
#        160497
#        180820
#        198687
#        214167
#        228970
#        251792
#
# Disc length: 3545 seconds
#
# Revision: 0
# Processed by: cddbd v1.4PL0 Copyright (c) Steve Scherf et al.
# Submitted via: ExactAudioCopy v0.90a11
#
DISCID=cf0dd70f
DTITLE=M Train - Drivin' South
DYEAR=1900
DGENRE=
TTITLE0=Hot Rod Blues
TTITLE1=Western Traveller
TTITLE2=Can't Get Over You
TTITLE3=No Dirty Talk
TTITLE4=Diesel
TTITLE5=Drivin' South
TTITLE6=Much To Little
TTITLE7=Love And Affection
TTITLE8=On The Edge
TTITLE9=I'll Come Back
TTITLE10=Wait A While
TTITLE11=Feed My Love
TTITLE12=Devil's Core
TTITLE13=Regular Son Of A Sin
TTITLE14=Holy Dancer
EXTD=
EXTT0=
EXTT1=
EXTT2=
EXTT3=
EXTT4=
EXTT5=
EXTT6=
EXTT7=
EXTT8=
EXTT9=
EXTT10=
EXTT11=
EXTT12=
EXTT13=
EXTT14=
PLAYORDER=
